<svg width="50" height="16" viewBox="0 0 50 16" fill="none" xmlns="http://www.w3.org/2000/svg">
<path d="M31.505 15.9998L37.9689 0H33.6837L29.2623 10.3395L26.1177 0H22.8238L19.448 10.3395L17.0671 5.62793L14.9126 12.2529L17.1 16H21.3174L24.3681 6.7278L27.2768 16L31.505 15.9998Z" fill="#B6B6B6"/>
<path d="M8.05764 10.5073H10.6904C11.488 10.5073 12.1981 10.4183 12.8209 10.2402L13.5019 8.14123L15.4049 2.27526C15.2587 2.04381 15.0925 1.82562 14.9082 1.62319C13.9314 0.541118 12.5017 0 10.6195 0H4V15.9998H8.05764V10.5073ZM11.5426 3.68087C11.9243 4.06512 12.1151 4.57946 12.1151 5.22388C12.1151 5.87312 11.9471 6.38796 11.6116 6.76855C11.2436 7.1914 10.5661 7.40282 9.57902 7.40282H8.05764V3.10449H9.59034C10.5102 3.10449 11.161 3.29661 11.5427 3.68087H11.5426ZM35.3431 13.1342L36.5732 10.0297H40.1243L38.4391 5.32053L40.547 0L46.5842 15.9998H42.1318L41.1003 13.1342H35.3431Z" fill="#616161"/>
</svg>
