<svg width="161" height="54" viewBox="0 0 161 54" fill="none" xmlns="http://www.w3.org/2000/svg">
<g clip-path="url(#clip0_1330_7344)">
<path d="M148.193 53.7558H120.297C113.222 53.7558 107.489 48.0222 107.489 40.948V13.052C107.489 5.97777 113.222 0.244202 120.297 0.244202H148.193C155.267 0.244202 161 5.97777 161 13.052V40.948C161 48.0222 155.267 53.7558 148.193 53.7558Z" fill="black"/>
<path d="M133.119 39.7089C126.111 39.7089 120.413 34.0058 120.413 27.0027C120.413 19.9995 126.111 14.2964 133.119 14.2964V18.801C128.6 18.801 124.918 22.4778 124.918 27.0027C124.918 31.5276 128.594 35.2044 133.119 35.2044C136.862 35.2044 140.026 32.6854 141.006 29.2575H133.795V24.7529H145.826V27.0077C145.826 34.016 140.123 39.714 133.119 39.714" fill="white"/>
<path d="M145.826 20.2939H133.77V24.7375H145.826V20.2939Z" fill="#F15A29"/>
<path d="M98.1441 16.3733H86.0879V20.8169H98.1441V16.3733Z" fill="#F15A29"/>
<path d="M87.5862 38.8455H83.1172V43.3146H87.5862V38.8455Z" fill="white"/>
<path d="M65.6574 38.8455H61.7622V43.3196H65.6574H66.2312H70.1264V38.8455H66.2312H65.6574Z" fill="white"/>
<path d="M86.1135 20.8628V25.2962H93.3706C92.4006 28.7648 89.2113 31.3193 85.4431 31.3193L77.3328 31.2837V25.7685C77.343 25.601 77.3582 25.4384 77.3582 25.2709V22.6859H72.9247V22.884H72.8993V25.7584C72.6454 28.9883 69.9437 31.5427 66.6478 31.5427H61.4881V22.7824H61.4627V22.6808H57.0292V25.2658C57.0292 28.7293 54.2157 31.5427 50.7522 31.5427H45.5925V26.8553H45.5417C45.3335 22.5945 42.0579 19.131 37.8784 18.6333C39.3664 16.7898 40.316 14.4842 40.443 11.9399L36.0146 11.7216C35.8216 15.6726 32.4546 18.7197 28.4985 18.5318V18.5673H28.3004V22.5386L28.2801 22.9551C28.2801 22.9551 28.2953 22.9551 28.3004 22.9551V22.9957H36.8424C39.2038 22.9957 41.1235 24.9154 41.1235 27.2768C41.1235 29.6383 39.2546 31.5021 36.9389 31.558V31.5377H10.7798C7.36198 31.5377 4.57899 28.7547 4.57899 25.3369H0.145508C0.145508 31.2025 4.91417 35.9711 10.7798 35.9711H36.8525V35.9965C38.4218 35.9965 39.8945 35.575 41.1692 34.8437V35.9711H50.7624C53.1188 35.9711 55.2924 35.1992 57.0647 33.9042V35.9711H66.6579C68.994 35.9711 71.1473 35.2094 72.9095 33.9398V35.6868L85.438 35.7426C92.426 35.7426 98.1088 30.0598 98.1088 23.0719V20.8577H86.1135V20.8628Z" fill="white"/>
<path d="M50.8333 38.8455H46.3643V43.3146H50.8333V38.8455Z" fill="white"/>
</g>
<defs>
<clipPath id="clip0_1330_7344">
<rect width="160.855" height="53.5116" fill="white" transform="translate(0.145508 0.244202)"/>
</clipPath>
</defs>
</svg>
